<?xml version="1.0" encoding="utf-8"?>
<svg xmlns="http://www.w3.org/2000/svg" viewBox="0 0 122.88 121.86" style="enable-background:new 0 0 122.88 121.86" xml:space="preserve">
  <path d="M61.44.01c3.27-.14 5.85 1 8.45 2.65 3.3 2.09 7.02 6.23 11.61 8.85 6.45 3.69 18.41-1.4 24.53 7.7 3.57 5.3 3.74 9.46 4 13.57.29 4.43 1.06 8.51 5.6 14.51 7.51 9.93 9.07 16.54 5.2 23.43-2.64 4.7-8.19 7.31-9.48 10.28-2.73 6.33.29 11.1-3.45 18.48-2.6 5.12-6.61 8.49-11.95 10.21-4.5 1.45-9.03-.65-12.63.87-6.34 2.66-11.01 8.85-16.06 10.42-1.95.6-3.89.9-5.82.89-1.94.01-3.88-.28-5.82-.89-5.04-1.57-9.72-7.75-16.06-10.42-3.61-1.52-8.13.58-12.63-.87-5.34-1.72-9.35-5.09-11.95-10.21-3.75-7.38-.72-12.15-3.46-18.48-1.29-2.97-6.84-5.58-9.48-10.28-3.87-6.89-2.3-13.5 5.2-23.43 4.54-6 5.31-10.08 5.6-14.51.27-4.11.43-8.27 4-13.57 6.12-9.1 18.08-4.01 24.53-7.7 4.59-2.62 8.3-6.76 11.61-8.85 2.61-1.65 5.19-2.79 8.46-2.65zM50.83 53.9l7.86 7.48 13.53-13.75c1.34-1.36 2.18-2.45 3.83-.75l5.36 5.49c1.76 1.74 1.67 2.76.01 4.38L61.75 76.06c-3.5 3.43-2.89 3.64-6.44.12l-13.5-13.43c-.74-.8-.66-1.61.15-2.41l6.22-6.45c.93-.98 1.68-.92 2.65.01zm10.43-26.33c18.95 0 34.3 15.36 34.3 34.3 0 18.95-15.36 34.3-34.3 34.3-18.95 0-34.3-15.36-34.3-34.3 0-18.95 15.36-34.3 34.3-34.3z" style="fill-rule:evenodd;clip-rule:evenodd"/>
</svg>
