<svg xmlns="http://www.w3.org/2000/svg" viewBox="0 0 114.35 122.88" xml:space="preserve">
  <path fill-rule="evenodd" clip-rule="evenodd" d="M5.361 0h95.059c2.949 0 5.361 2.413 5.361 5.361v15.083h7.787a.78.78 0 0 1 .781.778V37.81c0 .22-.182.399-.402.399h-8.166v14.348h7.787a.78.78 0 0 1 .781.777v16.589c0 .22-.182.398-.402.398h-8.166v14.347h7.787c.43 0 .781.349.781.779v16.589c0 .22-.182.399-.402.399h-8.166v15.082c0 2.948-2.412 5.361-5.361 5.361H5.361c-2.948 0-5.361-2.413-5.361-5.361V5.361C0 2.413 2.414 0 5.361 0zm8.908 99.61V87.268c6.604-2.939 26.802-8.38 27.769-16.45.204-1.84-4.091-8.929-5.08-12.267-1.236-1.977-1.909-2.683-1.88-5.127.019-1.368.05-2.715.245-4.039.245-1.683.199-1.735 1.079-3.098.921-1.408.522-6.556.522-8.506 0-19.342 33.9-19.353 33.9 0 0 2.456-.564 6.951.764 8.867.656.928.531 1.052.752 2.2.277 1.495.311 3.028.33 4.577.025 2.444-.635 3.15-1.879 5.127-1.201 3.502-5.775 10.126-5.377 12.116 1.453 7.38 20.193 12.332 26.1 14.956L91.51 99.61H14.269z"/>
</svg>
