<?xml version="1.0" encoding="utf-8"?>
<svg xmlns="http://www.w3.org/2000/svg" viewBox="0 0 122.88 122.75" style="enable-background:new 0 0 122.88 122.75" xml:space="preserve">
  <path d="m49.02 52.21 8.55 8.14L72.3 45.39c1.46-1.48 2.37-2.67 4.17-.82l5.83 5.97c1.92 1.89 1.82 3 .01 4.76L60.9 76.32c-3.81 3.73-3.14 3.96-7.01.13L39.21 61.84c-.8-.87-.72-1.75.16-2.62l6.77-7.02c1.01-1.07 1.83-1 2.88.01zM92.46 8.97c-1.35-.94-2.88-1.35-4.44-1.04a6.07 6.07 0 0 0-3.82 2.46l-5.27 7.43c-1.87-.83-3.82-1.46-5.9-1.98-2.08-.52-4.03-.94-6.11-1.25l-1.67-9.72c-.31-1.67-1.15-2.88-2.36-3.82C61.54.11 60.11-.2 58.45.11L46.27 2.3c-1.56.31-2.78 1.04-3.82 2.39-.94 1.35-1.35 2.78-1.04 4.44l1.56 8.88c-1.98.83-3.82 1.77-5.59 2.88-1.77 1.04-3.5 2.29-5.07 3.5l-8.26-5.69c-1.35-.94-2.78-1.35-4.34-1.04a5.97 5.97 0 0 0-3.82 2.5L8.86 30.21c-.94 1.35-1.35 2.88-1.04 4.44.31 1.67 1.15 2.88 2.5 3.82l7.43 5.27c-.83 1.87-1.46 3.82-1.98 5.9-.52 2.08-.94 4.03-1.25 6.11L4.8 57.42c-8.24 1.55-3.58 13.36-2.57 18.98.31 1.56 1.04 2.78 2.36 3.82 1.35.94 2.78 1.35 4.44 1.04l8.88-1.56c.83 1.98 1.77 3.82 2.88 5.59 1.04 1.77 2.29 3.5 3.5 5.17l-5.69 8.16c-.94 1.35-1.35 2.78-1.04 4.34.31 1.56 1.14 2.88 2.46 3.82l10.13 7.11c1.35.94 2.88 1.25 4.44.94 1.56-.31 2.88-1.04 3.92-2.36l5.28-7.53c1.87.83 3.82 1.46 5.9 1.98 2.08.52 4.02.94 6.11 1.25l1.67 9.72c.31 1.67 1.15 2.88 2.36 3.82 1.35.94 2.78 1.25 4.44.94l12.18-2.19c1.56-.31 2.78-1.04 3.82-2.36.94-1.35 1.35-2.78 1.04-4.44l-1.56-8.88c1.98-.83 3.82-1.77 5.59-2.88 1.77-1.04 3.51-2.26 5.17-3.5l8.16 5.69c1.35.94 2.78 1.35 4.44 1.04 1.67-.31 2.88-1.15 3.82-2.46l7.11-10.14c.94-1.35 1.25-2.88.94-4.44-.31-1.56-1.04-2.88-2.39-3.92L105.06 79c.83-1.87 1.46-3.82 1.98-5.9.52-2.08.94-4.03 1.25-6.11l9.72-1.67c1.67-.31 2.88-1.15 3.82-2.39.94-1.35 1.25-2.78.94-4.44l-2.19-12.18c-.31-1.56-1.04-2.78-2.36-3.82-1.35-.94-2.78-1.35-4.44-1.04l-8.88 1.56c-.83-1.87-1.77-3.71-2.88-5.59-1.04-1.87-2.29-3.5-3.5-5.07l5.69-8.26c.94-1.35 1.35-2.78 1.04-4.34a6.07 6.07 0 0 0-2.46-3.82L92.74 8.86l-.28.11zM55.42 28.78c4.39-.72 8.84-.72 13.23.29 4.25 1 8.12 2.72 11.65 5.11a35.06 35.06 0 0 1 8.84 9.26c2.44 3.68 3.97 7.84 4.68 12.23.72 4.39.72 8.84-.29 13.23-1 4.25-2.72 8.12-5.11 11.65-2.44 3.39-5.54 6.4-9.27 8.84-3.68 2.44-7.84 3.97-12.23 4.68-4.39.72-8.84.72-13.23-.29-4.25-1-8.12-2.72-11.65-5.11a35.06 35.06 0 0 1-8.84-9.26c-2.44-3.68-3.97-7.84-4.68-12.23-.72-4.39-.72-8.84.29-13.23 1-4.25 2.72-8.12 5.11-11.65 2.44-3.39 5.54-6.4 9.27-8.84 3.73-2.39 7.83-3.97 12.23-4.68z" style="fill-rule:evenodd;clip-rule:evenodd"/>
</svg>
